<svg width="375" height="175" viewBox="0 0 375 175" fill="none" xmlns="http://www.w3.org/2000/svg">
<mask id="mask0" mask-type="alpha" maskUnits="userSpaceOnUse" x="0" y="0" width="375" height="175">
<rect width="375" height="175" fill="#C4C4C4"/>
</mask>
<g mask="url(#mask0)">
<path d="M0 -144H387V174H0V-144Z" fill="url(#paint0_linear)"/>
<g opacity="0.2" filter="url(#filter0_d)">
<path d="M260 67C242.871 67 229 80.8634 229 97.9825C229 109.469 235.277 119.52 244.576 124.858C246.111 125.739 247.915 124.555 247.915 122.785C247.915 120.618 250.505 119.499 252.083 120.985L254.391 123.157C255.132 123.854 255.175 125.017 254.489 125.768C253.542 126.804 254.045 128.462 255.434 128.668C256.924 128.889 258.444 129 260 129C264.49 129 268.755 128.042 272.602 126.332C275.21 125.173 276.638 122.439 276.638 119.585V110.492C276.638 106.629 281.253 104.634 284.067 107.281C286.266 109.349 289.776 108.591 290.334 105.624C290.802 103.129 291 100.516 291 98.0175C291 80.8634 277.129 67 260 67Z" fill="url(#paint1_linear)"/>
</g>
<path d="M260 71C245.081 71 233 83.0745 233 97.9848C233 107.989 238.467 116.743 246.566 121.392C247.903 122.16 249.475 121.129 249.475 119.587C249.475 117.7 251.73 116.725 253.104 118.019L255.115 119.911C255.76 120.518 255.798 121.531 255.2 122.185C254.375 123.088 254.814 124.532 256.024 124.711C257.321 124.904 258.645 125 260 125C263.911 125 267.626 124.166 270.976 122.676C273.248 121.667 274.492 119.286 274.492 116.8V108.88C274.492 105.516 278.511 103.778 280.962 106.083C282.877 107.885 285.934 107.225 286.42 104.64C286.828 102.467 287 100.191 287 98.0152C287 83.0745 274.919 71 260 71Z" fill="url(#paint2_linear)"/>
<path d="M337 93C278.31 135.176 207.201 154.545 144.088 191.566C94.4144 187.192 46.7819 193.597 0 205V93C112.277 93 224.553 93 337 93Z" fill="url(#paint3_linear)"/>
<path opacity="0.34" d="M215.47 130.253L243.88 127.336C245.372 127.186 245.297 125.017 243.806 124.867L206 122.623V118.883L246.341 114.843C247.832 114.694 247.832 112.524 246.341 112.375L226.282 110.43C224.717 110.28 224.791 108.111 226.357 107.961L242.836 107.064C244.402 106.989 244.477 104.819 242.911 104.595L211.145 101.079C209.654 100.929 209.654 98.7601 211.145 98.6104L217.782 97.9372C219.348 97.7876 219.273 95.6182 217.782 95.4686C216.141 95.319 216.216 93 217.856 93L297.494 93.5237C299.135 93.5237 299.209 95.8426 297.569 95.9922C274.527 97.4135 249.995 98.4608 250.666 98.4608C251.412 98.4608 269.606 99.3585 284.818 100.107C286.384 100.181 286.384 102.426 284.818 102.575L283.252 102.65C281.686 102.725 281.686 104.969 283.252 105.119L324.637 109.382C326.203 109.457 326.203 111.701 324.637 111.851L310.916 112.749C309.276 112.824 309.35 115.217 310.991 115.217H314.868C316.509 115.217 316.583 117.536 314.943 117.686L277.286 118.584C275.646 118.733 275.795 121.052 277.361 121.052L307.337 122.848C308.903 122.848 309.052 125.092 307.486 125.316L293.542 125.092C291.976 125.241 292.125 127.486 293.691 127.56L308.381 129.73C310.021 129.805 310.021 132.123 308.381 132.198L215.768 132.498C214.053 132.797 213.904 130.478 215.47 130.253Z" fill="url(#paint4_linear)"/>
<path d="M415 25C384.482 34.1355 357.515 42.6185 336.306 76.5503C328.725 88.6875 314.234 109.177 301.278 107.089C255.501 99.9111 246.672 130.58 218.553 135.931C185.54 142.195 155.598 137.367 127 157.595V182H414.904" fill="#573F71"/>
<path d="M-2.82969 131.006C-2.42885 131.507 -1.89662 132.132 -1.49578 132.633C-1.3644 132.756 -1.23302 132.88 -0.983623 132.866C-0.353448 132.962 -0.0839915 133.34 0.0741392 133.984C0.107572 134.636 0.501726 135.007 1.1319 135.103C1.3813 135.089 1.51268 135.213 1.76876 135.33C1.88009 135.062 1.99141 134.795 2.10273 134.527C2.32538 133.992 2.57478 133.979 3.08694 134.212C3.21164 134.206 3.21833 134.336 3.34303 134.329C3.47441 134.453 3.72381 134.439 3.85519 134.562C3.84182 134.302 3.83513 134.172 3.69706 133.918C3.28285 133.156 3.24273 132.374 3.44532 131.448C3.54995 131.051 3.78597 130.776 4.022 130.502C4.14001 130.365 4.53416 130.736 4.79024 130.852C4.92163 130.976 5.04633 130.969 5.30909 131.216C5.29572 130.956 5.28235 130.695 5.27566 130.565C4.84139 129.412 5.03061 128.226 5.60729 127.28C5.71861 127.012 5.96801 126.999 6.21072 126.855C6.32873 126.718 6.57144 126.574 6.56475 126.443C6.26186 125.414 6.70716 124.345 6.78505 123.426C6.86294 122.507 6.93415 121.457 6.88734 120.545C6.86059 120.024 7.08993 119.619 7.31926 119.215C7.55528 118.94 8.06077 119.044 8.33022 119.421C8.61305 120.059 8.89588 120.697 9.1787 121.335C9.47491 122.234 9.77111 123.132 10.192 124.024C10.6196 125.046 11.1719 126.062 11.2321 127.234C11.2387 127.365 11.4948 127.481 11.6195 127.475C12.1183 127.447 12.2564 127.701 12.4078 128.216C12.704 129.114 12.7508 130.027 12.4235 130.959C12.3189 131.357 12.4503 131.48 12.8244 131.46C13.94 131.269 14.3341 131.639 14.0202 132.832C13.9156 133.23 13.8109 133.628 13.7063 134.026C13.6017 134.423 13.7264 134.417 13.9758 134.403C14.842 134.225 15.1114 134.602 15.1582 135.515C15.1983 136.297 14.9824 136.962 14.6484 137.764C14.6551 137.894 14.6551 137.894 14.5438 138.162C14.7932 138.148 14.9112 138.011 15.1606 137.997C15.7707 137.703 16.1648 138.073 16.0736 138.732C15.989 139.52 15.6483 140.192 15.4324 140.858C15.3277 141.255 15.3411 141.516 15.3612 141.907C15.5394 142.943 15.2054 143.745 14.8781 144.678C14.6554 145.212 14.4261 145.617 14.5776 146.131C14.7424 146.907 14.4017 147.579 14.0611 148.25C13.6091 149.19 13.2818 150.122 12.9545 151.055C13.0792 151.048 13.0859 151.179 13.2106 151.172C13.3286 151.035 13.4466 150.898 13.5579 150.63C13.6626 150.232 13.8919 149.828 13.9965 149.43C14.0945 148.902 14.4552 148.621 14.954 148.594C15.4461 148.436 15.5574 148.169 15.7868 147.764C16.0027 147.099 16.0873 146.311 16.8154 145.879C17.5369 145.317 17.7729 145.043 18.3496 144.096C18.8082 143.287 19.2736 142.609 20.2712 142.554C20.5206 142.541 20.7566 142.266 20.8746 142.129C21.4446 141.053 22.2774 140.223 23.3863 139.901C23.629 139.758 23.8717 139.614 23.9897 139.476C25.0719 138.633 26.1473 137.66 27.1048 136.824C27.2295 136.817 27.3475 136.68 27.3475 136.68C27.7149 136.529 27.8463 136.653 27.7417 137.05C27.5257 137.716 27.3097 138.381 27.0938 139.046C26.9891 139.444 26.8845 139.841 26.9112 140.363C26.9514 141.145 26.7354 141.81 26.3881 142.351C26.152 142.626 26.1721 143.017 26.3102 143.27C26.5863 143.778 26.4817 144.176 26.1276 144.587C25.8983 144.992 25.787 145.259 25.8137 145.78C25.8204 145.911 25.9518 146.034 25.9518 146.034C26.2079 146.151 26.5887 146.261 26.9694 146.371C27.4348 145.692 28.1495 145 28.7329 144.184C28.9622 143.779 29.323 143.498 29.7171 143.869C30.6612 142.772 31.7233 141.538 32.5427 140.448C33.3621 139.358 34.0568 138.274 34.7515 137.191C35.2235 136.643 35.6956 136.094 36.1676 135.546C36.2856 135.409 36.535 135.395 36.6597 135.388C36.6731 135.649 36.8112 135.903 36.8178 136.033C36.1633 137.898 35.502 139.633 34.7227 141.505C34.3888 142.307 34.1795 143.103 33.9702 143.898C33.8656 144.296 33.6362 144.701 33.4136 145.236C33.4203 145.366 33.309 145.633 33.4337 145.627C33.9525 145.99 33.8479 146.388 33.7432 146.786C33.1799 147.993 32.866 149.186 31.9152 150.152L31.9219 150.283C32.8215 150.756 32.8349 151.017 32.5076 151.95C32.187 153.013 31.735 153.952 30.8956 154.651C30.7776 154.788 30.6596 154.925 30.5416 155.063C31.2052 155.81 31.3432 156.064 30.7666 157.01C30.3079 157.82 29.7111 158.375 29.1211 159.06C29.0031 159.197 28.8784 159.204 28.7604 159.341C29.4106 159.829 29.562 160.343 29.09 160.892C28.854 161.166 28.618 161.44 28.3819 161.714C28.756 161.694 29.1301 161.673 29.3862 161.79C29.5109 161.783 29.767 161.9 29.8984 162.024C29.9051 162.154 29.787 162.291 29.669 162.428C29.551 162.565 29.433 162.702 29.5711 162.956C29.5845 163.217 29.4664 163.354 29.217 163.368C28.3442 163.415 27.8788 164.094 27.5382 164.766C27.3088 165.17 27.2042 165.568 26.9748 165.973C26.7455 166.377 26.3915 166.789 26.3002 167.447C26.3136 167.708 25.9529 167.989 25.7168 168.263C25.4808 168.537 25.2448 168.811 24.8908 169.223C24.6547 169.497 24.7861 169.62 25.0422 169.737C25.423 169.847 25.6724 169.833 26.0465 169.813C26.4206 169.793 26.6633 169.649 27.0441 169.759C27.3001 169.875 27.5428 169.731 27.7922 169.718C28.153 169.437 28.527 169.417 28.9212 169.787C28.9212 169.787 28.9212 169.787 29.0459 169.78C29.6761 169.877 30.1949 170.24 30.7071 170.474C31.3373 170.57 32.0721 170.269 32.8136 170.098C33.3057 169.94 33.5484 169.796 34.0606 170.03C34.5727 170.263 35.0782 170.366 35.7017 170.332C36.4499 170.292 37.2114 170.511 37.8416 170.608C37.9663 170.601 38.2291 170.848 38.2358 170.978C38.2424 171.109 38.1311 171.376 38.0064 171.383C37.4097 171.938 36.8063 172.363 36.3275 172.781C35.7308 173.336 35.7442 173.597 36.2764 174.221C36.6705 174.592 36.6973 175.113 36.5993 175.641C36.4947 176.039 36.6394 176.423 37.0202 176.533C37.5324 176.767 37.6838 177.281 37.5859 177.809C37.4946 178.467 38.0001 178.571 38.3876 178.811C38.5189 178.934 38.8797 178.653 39.1224 178.509C39.7191 177.954 40.1845 177.275 40.926 177.104C41.0507 177.098 41.162 176.83 41.28 176.693C41.5093 176.289 41.614 175.891 41.9747 175.61C42.204 175.205 42.5714 175.054 43.0769 175.158C43.4577 175.268 43.6937 174.993 43.805 174.726C44.0344 174.321 44.2704 174.047 44.6311 173.766C44.9918 173.485 45.3659 173.465 45.7467 173.575C46.1342 173.815 46.3702 173.541 46.7309 173.26C47.1963 172.581 47.7863 171.895 48.7973 172.102C48.922 172.095 49.1647 171.951 49.4074 171.807C50.0041 171.252 50.6009 170.696 51.6185 171.033C51.7432 171.026 51.9926 171.013 52.2353 170.869C52.9568 170.307 53.6916 170.005 54.5578 169.827C55.0566 169.8 55.5286 169.252 55.896 169.101C56.2634 168.95 56.6308 168.8 56.9982 168.649C57.2476 168.635 57.3723 168.629 57.615 168.485C59.196 167.614 60.7703 166.614 61.9504 165.243C62.0684 165.106 62.1931 165.099 62.1864 164.969C62.4291 164.825 62.6852 164.941 62.7052 165.332C62.7186 165.593 62.6073 165.86 62.4893 165.997C62.044 167.067 61.4673 168.013 61.022 169.083C60.904 169.22 60.9174 169.481 60.9241 169.611C60.8529 170.66 60.4009 171.6 59.9422 172.409C59.7129 172.814 59.6015 173.081 59.753 173.595C59.9245 174.501 59.5905 175.303 58.9938 175.858C58.7577 176.133 58.6464 176.4 58.6665 176.791C58.8246 177.436 58.6153 178.231 58.0119 178.656C57.6512 178.937 57.5399 179.205 57.6846 179.589C57.9741 180.357 57.7515 180.892 57.0167 181.193C56.2885 181.625 56.2885 181.625 56.4601 182.53C56.6048 182.915 56.5002 183.312 56.1328 183.463C55.7654 183.614 55.3979 183.764 55.0305 183.915C54.5384 184.073 54.4338 184.47 54.7033 184.848C55.1041 185.349 54.9928 185.616 54.5073 185.904C54.3893 186.041 54.1466 186.185 54.0286 186.322C53.9106 186.459 53.6679 186.603 53.6813 186.864C53.6946 187.124 53.708 187.385 53.8394 187.508C53.8461 187.639 54.3382 187.481 54.4562 187.344C55.0529 186.789 55.6564 186.364 56.3912 186.063C56.6339 185.919 56.8833 185.905 57.008 185.898C57.7495 185.727 57.8809 185.851 58.0457 186.626C58.2038 187.271 58.4599 187.387 59.0633 186.962C59.7848 186.4 60.5062 185.838 61.4971 185.654C62.1139 185.489 62.2453 185.613 62.2787 186.264C62.3188 187.046 62.831 187.28 63.4411 186.985C64.0512 186.691 64.6614 186.396 65.4029 186.225C65.6456 186.081 65.9016 186.198 66.151 186.184C66.5251 186.164 66.6632 186.418 66.6833 186.809C66.7167 187.46 66.9728 187.577 67.5896 187.413C68.1997 187.118 68.9345 186.817 69.5513 186.652C70.1681 186.488 70.4309 186.735 70.4643 187.387C70.5044 188.168 70.7739 188.546 71.5087 188.244C72.2435 187.943 72.867 187.909 73.6286 188.129C73.7599 188.252 74.016 188.369 74.0227 188.499C74.1742 189.014 74.5549 189.124 74.929 189.103C75.6772 189.063 76.3007 189.029 77.0489 188.988C77.1736 188.981 77.4364 189.228 77.5677 189.352C77.7058 189.605 77.9619 189.722 78.2113 189.709C79.2156 189.785 80.2198 189.861 81.2174 189.806C82.4711 189.869 83.6 189.938 84.8537 190C85.4772 189.966 85.9827 190.069 86.6128 190.166C86.7375 190.159 86.8756 190.413 87.0003 190.406C86.8823 190.543 86.889 190.673 86.771 190.81C86.0362 191.112 85.426 191.406 84.6912 191.708C84.0811 192.002 83.353 192.434 82.7429 192.729C82.5002 192.873 82.2575 193.017 82.1328 193.023C81.7587 193.044 81.5226 193.318 81.4113 193.585C81.3 193.853 80.9326 194.003 80.6899 194.147C80.3225 194.298 80.0798 194.442 79.7057 194.462C79.2136 194.62 78.9709 194.764 78.8796 195.422C78.893 195.683 78.657 195.957 78.4076 195.971C78.0402 196.121 77.6727 196.272 77.4233 196.286C76.6752 196.326 76.6818 196.457 76.5973 197.245C76.604 197.376 76.3679 197.65 76.2499 197.787C75.6331 197.951 75.0163 198.116 74.3995 198.28C74.2748 198.287 74.0254 198.3 73.776 198.314C73.4019 198.334 73.1659 198.609 73.3173 199.123C73.4688 199.638 73.2395 200.042 72.734 199.939C71.9858 199.98 71.2376 200.02 70.6074 199.924C69.984 199.958 69.8593 199.965 69.8927 200.616C69.9128 201.007 69.8014 201.275 69.3026 201.302C68.6791 201.336 68.1737 201.233 67.6749 201.26C67.1694 201.157 67.0514 201.294 66.9534 201.822C66.9601 201.952 66.7241 202.227 66.6061 202.364C66.1073 202.391 65.6085 202.418 65.1097 202.445C64.4795 202.349 63.9674 202.116 63.4619 202.012C63.0811 201.902 62.8451 202.177 62.8652 202.568C62.8919 203.089 62.5379 203.5 62.019 203.136C60.988 202.539 59.8724 202.731 58.8615 202.524C58.4874 202.545 58.238 202.558 58.1333 202.956C58.022 203.224 57.6546 203.374 57.4119 203.518C57.2939 203.655 57.1625 203.532 56.7884 203.552C57.3006 203.786 57.8127 204.019 58.3182 204.122C58.699 204.232 58.9618 204.479 58.8638 205.007C58.7659 205.535 59.0152 205.522 59.3893 205.501C60.2555 205.323 61.0104 205.413 61.7787 205.763C62.1661 206.003 62.1728 206.134 61.9435 206.538C61.8321 206.806 61.7208 207.073 61.4915 207.478C62.2464 207.567 62.9946 207.526 63.6247 207.623C64.2549 207.719 64.8918 207.946 65.4039 208.179C66.0408 208.406 66.0542 208.667 65.5821 209.215C65.5821 209.215 65.5888 209.345 65.4641 209.352C65.5955 209.476 65.7202 209.469 65.8449 209.462C66.8692 209.929 67.7622 210.272 68.7865 210.739C68.9179 210.863 69.0559 211.117 69.1873 211.24C69.3187 211.364 69.3254 211.494 69.4568 211.617C70.1003 211.974 70.6125 212.208 71.256 212.565C72.031 213.045 72.8059 213.526 73.5741 213.876C74.0863 214.109 74.7165 214.206 75.222 214.309C75.8588 214.536 76.371 214.769 77.0079 214.996C77.1392 215.119 77.2773 215.373 77.4087 215.497C77.166 215.64 77.048 215.778 76.7986 215.791C76.4245 215.812 75.9257 215.839 75.6562 215.461C75.5249 215.338 75.2755 215.351 75.1508 215.358C74.7967 215.77 74.4159 215.66 74.0419 215.68C72.9129 215.611 71.9086 215.535 70.7797 215.466C70.4056 215.486 70.1495 215.369 69.7754 215.39C70.1762 215.891 70.4457 216.268 70.8398 216.639C45.1297 215.165 19.4263 213.821 -6.15917 212.341C-5.54813 185.256 -4.18891 158.131 -2.82969 131.006Z" fill="#200F32"/>
<path opacity="0.2" d="M251.453 150.019C282.636 170.879 320.825 161.374 343.082 125.374C346.246 120.664 346.246 112.084 346.924 104.514C347.545 101.654 348.223 96.9439 350.087 96.0187C358.956 86.2617 368.842 79.1122 375 67V175H205.525H175C190.818 173.57 214.073 139.396 251.453 150.019Z" fill="url(#paint5_linear)"/>
<path d="M214.229 161.399C214.527 161.998 214.826 162.521 215.124 163.12C215.348 163.494 215.571 163.943 215.795 164.317H214.602C214.304 163.419 214.005 162.521 213.782 161.624C213.782 161.474 213.782 161.324 213.931 161.25C214.08 161.175 214.154 161.25 214.229 161.399Z" fill="#23011B"/>
<path d="M203.566 163.269C203.715 163.643 203.864 163.942 204.088 164.316H202V159.828C202.224 160.277 202.373 160.651 202.522 161.1C202.82 161.773 203.193 162.521 203.566 163.269Z" fill="#23011B"/>
<path d="M207.145 154.218C206.921 153.545 206.772 152.946 206.772 152.198C206.772 152.049 206.847 151.974 206.921 151.899C206.996 151.899 207.145 151.899 207.145 152.049C207.294 152.423 207.518 152.797 207.667 153.096C208.04 153.844 208.487 154.667 208.86 155.49C209.233 156.387 209.606 157.285 209.979 158.183C210.873 160.202 211.768 162.222 212.663 164.242H210.202C209.606 162.297 209.084 160.502 208.562 158.631C208.264 157.584 207.891 156.612 207.593 155.639C207.443 155.19 207.294 154.742 207.145 154.218Z" fill="#23011B"/>
<path d="M300.28 159.005C300.429 158.631 300.503 158.257 300.652 157.958V162.297C300.429 162.97 300.205 163.643 299.981 164.242H298.714C299.012 162.671 299.534 161.1 300.056 159.604C300.13 159.454 300.205 159.23 300.28 159.005Z" fill="#23011B"/>
<path d="M214.826 156.163C214.826 156.013 214.9 155.939 214.975 155.864C215.049 155.789 215.198 155.864 215.273 156.013C215.571 156.612 215.944 157.21 216.242 157.809C216.988 159.08 217.734 160.352 218.405 161.624C218.927 162.522 219.449 163.494 219.971 164.392H218.107C217.286 162.372 216.391 160.277 215.422 158.183C215.198 157.51 214.9 156.911 214.826 156.163Z" fill="#23011B"/>
<path d="M222.133 159.903C221.835 159.604 221.537 159.23 221.313 158.931C221.089 158.706 221.015 158.407 220.94 158.033C220.94 157.958 220.94 157.809 221.015 157.734C221.089 157.659 221.164 157.659 221.164 157.659C221.238 157.734 221.313 157.734 221.313 157.809C221.462 157.884 221.611 157.958 221.686 158.108C223.401 159.679 225.265 161.1 227.353 162.372C226.98 161.923 226.682 161.399 226.309 160.951C226.234 160.876 226.234 160.801 226.234 160.726C226.234 160.651 226.16 160.577 226.16 160.502C226.085 160.352 226.16 160.277 226.234 160.203C226.309 160.128 226.384 160.128 226.533 160.203C226.607 160.277 226.756 160.352 226.831 160.427C226.98 160.577 227.129 160.651 227.278 160.801C228.173 161.774 229.068 162.746 229.963 163.793C230.261 163.943 230.634 164.093 230.932 164.242H226.756C225.936 163.569 225.116 162.896 224.37 162.222C223.55 161.549 222.804 160.726 222.133 159.903Z" fill="#23011B"/>
<path d="M223.476 162.447C223.55 162.372 223.699 162.372 223.774 162.447C224.221 162.97 224.594 163.419 225.042 163.943C225.116 164.092 225.265 164.167 225.34 164.317H224.147C223.998 164.167 223.923 163.943 223.774 163.793C223.625 163.644 223.55 163.419 223.476 163.27C223.401 163.195 223.401 163.12 223.327 163.045C223.252 162.896 223.252 162.746 223.327 162.671C223.327 162.522 223.401 162.522 223.476 162.447Z" fill="#23011B"/>
<path d="M219.151 160.053C219.151 159.978 219.225 159.828 219.3 159.828C219.374 159.828 219.449 159.828 219.523 159.903C219.747 160.202 220.045 160.576 220.269 160.875C220.791 161.549 221.388 162.297 221.91 162.97C222.208 163.419 222.506 163.868 222.879 164.242H221.238C221.089 163.942 220.866 163.643 220.716 163.344C220.269 162.596 219.822 161.773 219.449 160.95C219.225 160.801 219.076 160.501 219.151 160.053Z" fill="#23011B"/>
<path d="M282.011 152.273C282.085 151.824 282.085 151.45 282.16 151.001C282.234 150.328 282.309 149.73 282.458 149.056C282.458 148.982 282.533 148.907 282.607 148.907C282.682 148.907 282.756 148.982 282.756 149.056C282.756 149.505 282.831 149.879 282.906 150.328C282.98 151.226 283.129 152.198 283.129 153.171C283.204 155.415 283.278 157.584 283.129 159.754C283.055 161.25 282.98 162.821 282.831 164.392H280.147C280.296 163.269 280.445 162.147 280.669 161.025C281.116 158.257 281.563 155.415 282.011 152.273Z" fill="#23011B"/>
<path d="M279.699 145.989C279.774 145.316 279.848 144.643 279.848 143.969C279.848 143.67 279.923 143.296 279.923 142.997C279.923 142.548 279.997 142.174 280.221 141.725C280.296 141.65 280.295 141.576 280.37 141.576C280.445 141.576 280.519 141.65 280.519 141.725C280.519 141.95 280.594 142.249 280.594 142.473C280.668 142.997 280.743 143.595 280.743 144.194C280.743 144.792 280.743 145.391 280.743 146.064C280.817 148.233 280.817 150.478 280.743 152.647C280.594 156.836 280.146 160.651 279.475 164.242H277.238C277.238 162.297 277.462 160.277 277.835 157.958C278.655 153.395 279.177 149.58 279.699 145.989Z" fill="#23011B"/>
<path d="M242.266 144.493C242.266 144.343 242.341 144.269 242.416 144.194C242.49 144.194 242.565 144.194 242.565 144.343C242.639 144.568 242.639 144.792 242.714 144.942C242.863 145.391 242.938 145.84 243.012 146.363C243.087 146.887 243.161 147.336 243.31 147.859C243.609 149.58 243.981 151.375 244.205 153.171C244.802 157.135 245.249 160.801 245.547 164.317H243.683C243.534 163.12 243.459 161.848 243.385 160.651C243.385 160.277 243.31 159.903 243.31 159.529C243.087 155.938 242.938 152.348 242.565 148.757C242.416 147.336 242.341 145.989 242.266 144.493Z" fill="#200F32"/>
<path d="M202 149.729C202.075 149.879 202.149 150.029 202.224 150.178C203.119 152.273 204.088 154.367 204.983 156.462C206.176 159.23 207.22 161.773 208.264 164.317H205.878C205.728 163.793 205.579 163.269 205.43 162.671C204.759 160.277 203.939 157.883 203.119 155.564C203.119 155.49 203.119 155.49 203.044 155.415C202.746 154.517 202.447 153.619 202.149 152.796C202.075 152.647 202.075 152.497 202 152.348V149.729C202 149.655 202 149.655 202 149.729Z" fill="#23011B"/>
<path d="M369.149 126.18C368.723 126.18 368.014 126.322 368.084 125.612C368.155 123.98 367.801 122.418 367.872 120.857C367.872 120.502 367.872 120.076 367.801 119.721C367.801 119.65 367.588 119.579 367.517 119.65C366.737 120.36 366.24 121.212 366.382 122.347C366.595 123.412 366.666 124.476 366.807 125.47C367.233 128.38 367.659 131.289 368.155 134.199C368.226 134.625 368.226 134.909 367.801 135.051C366.169 135.76 364.466 136.47 362.835 137.18C362.622 137.251 362.409 137.535 362.196 137.677C361.983 137.819 361.912 138.102 361.699 138.244C359.784 139.593 357.656 140.657 355.527 141.651C354.392 142.148 353.328 142.644 352.193 143.141C351.483 143.425 351.483 143.354 351.838 144.064C352.548 145.483 353.257 146.903 353.683 148.393C354.25 150.309 354.534 152.296 355.031 154.212C355.314 155.49 355.173 156.767 354.889 158.045C354.747 158.542 354.676 159.109 354.676 159.606C354.676 161.877 354.747 164.148 354.818 166.348C354.818 167.342 354.747 168.335 355.031 169.258C355.385 170.606 355.102 172.097 355.811 173.374C355.882 173.516 355.74 173.658 355.74 173.8C355.74 174.155 355.811 174.51 355.882 174.865C355.953 175.077 356.095 175.219 356.095 175.361C356.166 175.574 356.166 175.787 356.237 176H316.791C316.791 175.929 316.72 175.929 316.72 175.858C316.65 175.645 316.437 175.432 316.295 175.432C315.727 175.29 315.585 174.935 315.585 174.439C315.585 174.084 315.514 173.729 315.373 173.374C315.089 172.452 314.734 171.529 314.45 170.535C314.237 169.968 314.096 169.4 313.954 168.761C313.528 167.129 313.031 165.497 312.677 163.864C312.535 163.297 312.535 162.729 312.393 162.161C312.109 161.238 311.683 160.316 311.825 159.251C311.825 159.109 311.683 158.967 311.683 158.825C311.329 158.045 310.903 157.264 310.761 156.483C310.406 155.064 310.335 153.574 310.052 152.083C309.839 150.877 309.555 149.741 309.2 148.535C308.846 147.328 309.058 146.193 309.555 145.057C309.768 144.632 309.91 144.206 310.052 143.709C310.123 143.354 309.981 143.141 309.484 143.07C308.987 143.07 308.42 142.928 307.923 142.786C307.427 142.644 306.788 141.864 306.788 141.438C306.788 140.373 306.788 139.309 306.788 138.244C306.788 137.819 306.93 137.251 306.363 137.038C306.292 137.038 306.221 136.825 306.292 136.683C306.433 135.902 306.575 135.122 306.717 134.341C306.93 133.277 307.143 132.212 307.214 131.147C307.285 129.018 307.214 126.96 307.214 124.831C307.214 123.341 307.285 121.921 307.427 120.431C307.569 118.373 307.852 116.315 307.427 114.186C307.214 113.192 307.143 112.199 307.001 111.205C306.859 110.141 306.646 109.076 306.433 108.012C306.15 106.379 305.866 104.747 305.582 103.115C305.369 101.624 305.156 100.063 304.873 98.5016C304.731 97.792 304.589 97.0113 304.518 96.3016C304.376 94.6693 304.802 93.2499 305.724 91.9015C306.292 91.1208 306.859 90.2692 307.285 89.3466C307.64 88.566 307.852 87.7853 308.207 87.0046C309.2 84.8046 309.129 82.5336 308.987 80.1916C308.987 79.7658 308.775 79.198 308.491 78.9851C306.575 77.7077 304.66 76.5722 302.673 75.4366C300.758 74.3011 298.7 73.3076 296.856 72.0301C292.103 68.8365 287.704 65.2881 283.66 61.2428C282.667 60.3202 281.603 59.4686 281.106 58.1202C280.751 57.2685 280.539 56.4169 280.184 55.5653C279.758 54.5007 280.113 53.7201 280.822 53.0104C280.964 52.8684 281.035 52.7975 281.177 52.6555C282.88 51.2361 284.582 49.8168 286.356 48.4683C288.91 46.4102 291.464 44.3521 294.018 42.294C295.65 41.0166 297.423 39.7391 299.126 38.4617C299.339 38.3197 299.623 38.1778 299.907 38.1068C300.687 37.823 301.538 37.681 302.248 37.3262C302.957 36.9713 303.667 37.0423 304.447 37.1842C304.944 37.2552 305.44 37.3262 305.937 37.4681C306.93 37.681 307.923 37.8939 308.846 38.2488C309.697 38.5327 310.406 39.1004 311.187 39.4552C311.612 39.6682 312.038 39.8101 312.464 40.023C312.677 40.094 312.819 40.2359 313.031 40.3069C313.031 40.094 313.173 39.8101 313.102 39.5972C312.96 39.1004 312.819 38.6746 312.606 38.1778C312.251 37.4681 311.896 36.7584 311.612 36.0487C311.329 35.2681 311.967 33.8487 313.102 34.2745C314.592 34.7713 316.082 35.339 317.572 35.7649C317.997 35.9068 318.565 35.9068 318.991 35.6939C320.126 35.1261 321.261 34.4164 322.325 33.7067C324.241 32.4293 326.085 31.0809 328.001 29.7325C329.065 28.9518 330.2 28.6679 331.406 29.5196C332.045 29.9454 332.754 30.3712 333.392 30.797C334.244 31.3648 335.095 31.9325 335.805 32.7132C337.011 33.9197 338.146 35.2681 339.281 36.6165C340.203 37.752 341.125 38.8875 341.835 40.094C342.97 41.8682 343.609 43.9263 344.105 45.9135C344.318 46.6941 344.531 47.5457 344.034 48.3264C342.828 50.1716 341.551 52.0878 340.345 53.933C340.274 54.0749 340.345 54.4298 340.416 54.5007C340.842 54.9265 341.409 55.2814 341.835 55.7072C342.615 56.5588 342.473 56.9846 341.48 57.5524C340.274 58.1202 339.139 58.7589 338.004 59.3976C337.933 59.4686 337.791 59.6105 337.862 59.6815C337.933 59.8234 337.933 59.9654 338.004 60.1073C339.423 61.4557 341.409 63.2299 343.821 64.6493C348.433 67.3462 347.865 72.385 347.865 72.385C347.865 72.385 351.909 72.314 355.456 74.3011C358.933 76.3592 359.004 79.8367 361.487 81.54C363.544 82.8884 364.821 87.6434 360.848 89.2047C360.919 89.3466 361.061 89.4886 361.132 89.6305C361.416 89.9853 361.77 90.3402 361.912 90.766C362.125 91.6886 362.196 92.6112 362.338 93.5338C362.551 95.0242 362.906 96.3726 363.828 97.579C363.899 97.721 363.899 97.9339 363.899 98.1468C363.686 98.0758 363.402 98.1468 363.189 98.0049C362.976 97.8629 362.906 97.579 362.764 97.2952C362.693 97.579 362.693 97.8629 362.764 98.0758C362.976 98.8565 363.26 99.7081 363.473 100.489C363.544 100.702 363.402 101.057 363.331 101.057C362.693 101.269 362.764 101.695 362.906 102.121C362.976 102.547 362.976 102.973 363.047 103.328C363.26 104.818 363.331 106.237 363.615 107.728C363.828 108.934 364.183 110.141 364.537 111.347C364.608 111.631 364.821 111.844 365.034 111.986C365.601 112.341 366.24 112.766 366.878 113.05C368.439 113.76 368.581 115.392 369.432 116.599C369.503 116.741 369.503 116.883 369.432 117.096C369.22 118.16 369.503 119.154 369.574 120.218C369.787 121.921 369.858 123.554 370 125.257C369.574 125.896 369.574 126.18 369.149 126.18ZM318.778 67.772C318.636 67.1332 318.494 66.4945 318.281 65.8558C317.927 64.7913 316.933 64.5784 316.011 64.5074C315.302 64.4364 314.521 64.5784 313.812 64.5784C313.244 64.5784 312.606 64.6493 312.18 64.4364C310.903 63.8687 310.619 63.017 311.116 61.5267C311.187 61.2428 311.258 60.888 311.258 60.6041C311.258 59.8944 311.116 59.1847 311.542 58.546C311.825 58.0492 311.542 57.4814 311.116 57.0556C310.903 56.8427 310.761 56.5588 310.69 56.204C310.548 55.4943 310.406 54.8556 309.768 54.3588C308.987 53.862 308.917 52.8684 309.484 52.1587C310.264 51.1652 311.116 50.1716 311.896 49.249C312.18 48.8942 312.18 48.6813 311.896 48.3974C311.754 48.1845 311.683 47.9006 311.612 47.6877C311.542 47.2619 311.825 47.4748 312.109 47.6877C311.825 46.978 311.542 46.4102 311.329 45.8425C311.329 45.7715 311.045 45.7715 310.974 45.8425C310.406 45.9844 309.839 46.1264 309.271 46.2683C307.285 46.907 305.369 46.5522 303.738 45.2747C303.383 44.9909 303.099 44.9199 302.744 45.2747C301.113 46.6941 299.339 48.1135 297.778 49.6038C296.146 51.1652 295.011 53.0814 294.302 55.2104C294.16 55.7072 293.876 56.133 293.592 56.5588C293.38 56.9137 293.38 57.1976 293.734 57.4105C295.437 58.617 297.14 59.8944 298.842 61.1009C299.978 61.8815 301.042 62.7332 302.248 63.3009C303.809 64.0106 305.511 64.5074 307.143 65.0751C309.058 65.7139 310.974 66.4945 312.96 66.9913C314.096 67.2752 314.947 68.0558 315.94 68.6236C316.011 68.6946 316.153 68.7655 316.295 68.7655C317.146 68.6236 317.785 69.1914 318.423 69.6172C318.849 69.8301 319.062 69.7591 318.991 69.3333C318.991 68.6236 318.92 68.1978 318.778 67.772Z" fill="#200F32"/>
</g>
<defs>
<filter id="filter0_d" x="225" y="67" width="70" height="70" filterUnits="userSpaceOnUse" color-interpolation-filters="sRGB">
<feFlood flood-opacity="0" result="BackgroundImageFix"/>
<feColorMatrix in="SourceAlpha" type="matrix" values="0 0 0 0 0 0 0 0 0 0 0 0 0 0 0 0 0 0 127 0"/>
<feOffset dy="4"/>
<feGaussianBlur stdDeviation="2"/>
<feColorMatrix type="matrix" values="0 0 0 0 0 0 0 0 0 0 0 0 0 0 0 0 0 0 0.25 0"/>
<feBlend mode="normal" in2="BackgroundImageFix" result="effect1_dropShadow"/>
<feBlend mode="normal" in="SourceGraphic" in2="effect1_dropShadow" result="shape"/>
</filter>
<linearGradient id="paint0_linear" x1="193" y1="145" x2="193" y2="-109.5" gradientUnits="userSpaceOnUse">
<stop offset="0.429661" stop-color="#AC9DD8"/>
<stop offset="1" stop-color="#2C0064"/>
</linearGradient>
<linearGradient id="paint1_linear" x1="289.096" y1="67" x2="215.909" y2="96.2876" gradientUnits="userSpaceOnUse">
<stop stop-color="#F6D365"/>
<stop offset="1" stop-color="#FDA085"/>
</linearGradient>
<linearGradient id="paint2_linear" x1="285.342" y1="71" x2="221.598" y2="96.5086" gradientUnits="userSpaceOnUse">
<stop stop-color="#F6D365"/>
<stop offset="1" stop-color="#FDA085"/>
</linearGradient>
<linearGradient id="paint3_linear" x1="168" y1="93" x2="168.444" y2="158.257" gradientUnits="userSpaceOnUse">
<stop stop-color="#806BAE"/>
<stop offset="1" stop-color="#6442AD"/>
</linearGradient>
<linearGradient id="paint4_linear" x1="325.789" y1="113.054" x2="196.695" y2="113.054" gradientUnits="userSpaceOnUse">
<stop stop-color="#FCF4B3"/>
<stop offset="1" stop-color="#FCF4B3" stop-opacity="0"/>
</linearGradient>
<linearGradient id="paint5_linear" x1="435.777" y1="42.8253" x2="183.02" y2="158.183" gradientUnits="userSpaceOnUse">
<stop stop-opacity="0"/>
<stop offset="0.544817"/>
</linearGradient>
</defs>
</svg>
